<svg width="20" height="12" viewBox="0 0 20 12" fill="none" xmlns="http://www.w3.org/2000/svg">
<path d="M6.28244 9.49244L2.38244 5.59244L6.28244 1.69244C6.37508 1.60092 6.44864 1.49192 6.49883 1.37176C6.54903 1.25159 6.57488 1.12266 6.57488 0.99244C6.57488 0.862215 6.54903 0.733285 6.49883 0.613124C6.44864 0.492964 6.37508 0.383962 6.28244 0.292439C6.19092 0.1998 6.08192 0.126248 5.96176 0.0760489C5.8416 0.0258493 5.71267 0 5.58244 0C5.45222 0 5.32329 0.0258493 5.20313 0.0760489C5.08297 0.126248 4.97397 0.1998 4.88244 0.292439L0.292444 4.88244C0.19974 4.97495 0.126193 5.08484 0.0760114 5.20582C0.02583 5.32679 0 5.45647 0 5.58744C0 5.71841 0.02583 5.84809 0.0760114 5.96906C0.126193 6.09004 0.19974 6.19993 0.292444 6.29244L4.88244 10.8924C5.27244 11.2824 5.89244 11.2824 6.28244 10.8924C6.37508 10.8009 6.44864 10.6919 6.49883 10.5718C6.54903 10.4516 6.57488 10.3227 6.57488 10.1924C6.57488 10.0622 6.54903 9.93328 6.49883 9.81312C6.44864 9.69296 6.37508 9.58396 6.28244 9.49244ZM12.8824 9.49244L16.7824 5.59244L12.8824 1.69244C12.7898 1.60092 12.7163 1.49192 12.6661 1.37176C12.6159 1.25159 12.59 1.12266 12.59 0.99244C12.59 0.862215 12.6159 0.733285 12.6661 0.613124C12.7163 0.492964 12.7898 0.383962 12.8824 0.292439C12.974 0.1998 13.083 0.126248 13.2031 0.0760489C13.3233 0.0258493 13.4522 0 13.5824 0C13.7127 0 13.8416 0.0258493 13.9618 0.0760489C14.0819 0.126248 14.1909 0.1998 14.2824 0.292439L18.8724 4.88244C19.2624 5.27244 19.2624 5.90244 18.8724 6.29244L14.2824 10.8924C14.1909 10.9851 14.0819 11.0586 13.9618 11.1088C13.8416 11.159 13.7127 11.1849 13.5824 11.1849C13.4522 11.1849 13.3233 11.159 13.2031 11.1088C13.083 11.0586 12.974 10.9851 12.8824 10.8924C12.7898 10.8009 12.7163 10.6919 12.6661 10.5718C12.6159 10.4516 12.59 10.3227 12.59 10.1924C12.59 10.0622 12.6159 9.93328 12.6661 9.81312C12.7163 9.69296 12.7898 9.58396 12.8824 9.49244Z" fill="#0085FF"/>
</svg>
