<svg width="508" height="368" viewBox="0 0 508 368" fill="none" xmlns="http://www.w3.org/2000/svg">
<path d="M374.007 28.5862C373.735 28.5862 373.559 28.7462 373.479 29.0662L370.959 38.0182C370.607 39.2662 370.047 40.1862 369.279 40.7782C368.511 41.3542 367.503 41.6422 366.255 41.6422C365.519 41.6422 364.871 41.5462 364.311 41.3542C363.767 41.1782 363.303 40.9302 362.919 40.6102C362.535 40.2902 362.231 39.9062 362.007 39.4582C361.783 39.0102 361.631 38.5302 361.551 38.0182L359.535 25.8502C359.487 25.5462 359.463 25.2902 359.463 25.0822H364.047C364.047 25.1622 364.047 25.2582 364.047 25.3702C364.063 25.4822 364.079 25.5942 364.095 25.7062L365.799 36.7942C365.847 37.1622 366.039 37.3462 366.375 37.3462C366.519 37.3462 366.639 37.3142 366.735 37.2502C366.831 37.1702 366.903 37.0342 366.951 36.8422L369.423 28.1302C369.759 26.9622 370.279 26.1062 370.983 25.5622C371.687 25.0022 372.695 24.7222 374.007 24.7222C375.303 24.7222 376.287 24.9942 376.959 25.5382C377.631 26.0822 378.119 26.9062 378.423 28.0102L380.847 36.8422C380.895 37.0342 380.967 37.1702 381.063 37.2502C381.159 37.3142 381.279 37.3462 381.423 37.3462C381.743 37.3462 381.935 37.1622 381.999 36.7942L383.847 25.7062C383.879 25.5782 383.895 25.4662 383.895 25.3702C383.895 25.2582 383.895 25.1622 383.895 25.0822H388.431C388.431 25.2102 388.423 25.3302 388.407 25.4422C388.407 25.5382 388.391 25.6742 388.359 25.8502L386.199 38.0422C386.007 39.1142 385.527 39.9862 384.759 40.6582C384.007 41.3142 382.903 41.6422 381.447 41.6422C379.031 41.6422 377.503 40.4342 376.863 38.0182L374.535 29.0662C374.455 28.7462 374.279 28.5862 374.007 28.5862ZM397.547 41.3062C396.091 41.3062 394.827 41.0742 393.755 40.6102C392.683 40.1302 391.771 39.4822 391.019 38.6662C390.363 37.9462 389.851 37.1222 389.483 36.1942C389.115 35.2662 388.931 34.2662 388.931 33.1942C388.931 32.0102 389.163 30.9062 389.627 29.8822C390.091 28.8582 390.731 27.9702 391.547 27.2182C392.267 26.5462 393.115 26.0262 394.091 25.6582C395.083 25.2742 396.235 25.0822 397.547 25.0822H400.955C402.267 25.0822 403.411 25.2742 404.387 25.6582C405.379 26.0262 406.235 26.5462 406.955 27.2182C407.771 27.9702 408.411 28.8582 408.875 29.8822C409.339 30.9062 409.571 32.0102 409.571 33.1942C409.571 34.2662 409.387 35.2662 409.019 36.1942C408.651 37.1222 408.139 37.9462 407.483 38.6662C406.731 39.4822 405.819 40.1302 404.747 40.6102C403.675 41.0742 402.411 41.3062 400.955 41.3062H397.547ZM397.547 29.3782C396.811 29.3782 396.203 29.4742 395.723 29.6662C395.243 29.8582 394.827 30.1142 394.475 30.4342C394.107 30.7862 393.811 31.2022 393.587 31.6822C393.379 32.1622 393.275 32.6742 393.275 33.2182C393.275 33.7142 393.363 34.1862 393.539 34.6342C393.715 35.0662 393.963 35.4502 394.283 35.7862C394.635 36.1702 395.075 36.4742 395.603 36.6982C396.131 36.9222 396.779 37.0342 397.547 37.0342H400.955C401.723 37.0342 402.371 36.9222 402.899 36.6982C403.427 36.4742 403.867 36.1702 404.219 35.7862C404.539 35.4502 404.787 35.0662 404.963 34.6342C405.139 34.1862 405.227 33.7142 405.227 33.2182C405.227 32.6742 405.115 32.1622 404.891 31.6822C404.683 31.2022 404.395 30.7862 404.027 30.4342C403.675 30.1142 403.259 29.8582 402.779 29.6662C402.299 29.4742 401.691 29.3782 400.955 29.3782H397.547ZM415.995 41.3062H411.651V26.0902C411.651 25.4182 412.011 25.0822 412.731 25.0822H424.251C425.259 25.0822 426.091 25.2262 426.747 25.5142C427.403 25.7862 427.955 26.1542 428.403 26.6182C428.803 27.0342 429.115 27.5222 429.339 28.0822C429.579 28.6262 429.699 29.2022 429.699 29.8102C429.699 30.4662 429.587 31.0902 429.363 31.6822C429.139 32.2582 428.739 32.7542 428.163 33.1702C428.707 33.4902 429.099 33.8982 429.339 34.3942C429.595 34.8902 429.723 35.6022 429.723 36.5302V39.7702C429.723 40.1222 429.723 40.4102 429.723 40.6342C429.739 40.8582 429.763 41.0822 429.795 41.3062H425.403C425.355 40.9542 425.331 40.5942 425.331 40.2262V36.9862C425.331 36.4742 425.195 36.1062 424.923 35.8822C424.651 35.6582 424.195 35.5462 423.555 35.5462H415.995V41.3062ZM423.675 31.8502C423.979 31.8502 424.227 31.8022 424.419 31.7062C424.611 31.6102 424.771 31.4822 424.899 31.3222C425.107 31.0662 425.211 30.7862 425.211 30.4822C425.211 30.1142 425.091 29.8102 424.851 29.5702C424.595 29.2822 424.203 29.1382 423.675 29.1382H416.355C416.115 29.1382 415.995 29.2582 415.995 29.4982V31.8502H423.675ZM436.246 25.0822V31.7302L443.638 25.7542C443.894 25.5462 444.118 25.3222 444.31 25.0822H450.382C450.334 25.1622 450.27 25.2422 450.19 25.3222C450.11 25.3862 450.03 25.4502 449.95 25.5142L441.022 32.4262C440.926 32.5062 440.878 32.5942 440.878 32.6902C440.878 32.7862 440.926 32.8742 441.022 32.9542L450.598 40.7062C450.71 40.8022 450.814 40.8982 450.91 40.9942C451.022 41.0902 451.126 41.1942 451.222 41.3062H444.742C444.582 41.1142 444.342 40.8902 444.022 40.6342L436.246 34.1302V41.3062H431.854V25.0822H436.246ZM469.728 29.3782H458.064C457.792 29.3782 457.576 29.4102 457.416 29.4742C457.272 29.5222 457.152 29.5942 457.056 29.6902C456.832 29.9142 456.72 30.1942 456.72 30.5302C456.72 30.8822 456.856 31.1702 457.128 31.3942C457.224 31.4742 457.336 31.5382 457.464 31.5862C457.608 31.6182 457.808 31.6342 458.064 31.6342H465.192C466.104 31.6342 466.872 31.7702 467.496 32.0422C468.136 32.2982 468.672 32.6502 469.104 33.0982C469.536 33.5462 469.872 34.0582 470.112 34.6342C470.368 35.2102 470.496 35.8182 470.496 36.4582C470.496 37.0502 470.384 37.6182 470.16 38.1622C469.952 38.7062 469.664 39.1942 469.296 39.6262C468.848 40.1382 468.288 40.5462 467.616 40.8502C466.96 41.1542 466.152 41.3062 465.192 41.3062H452.616V37.1542H464.424C464.76 37.1542 465.016 37.1222 465.192 37.0582C465.384 36.9782 465.536 36.8742 465.648 36.7462C465.824 36.5382 465.912 36.2902 465.912 36.0022C465.912 35.6502 465.8 35.3622 465.576 35.1382C465.464 35.0102 465.32 34.9222 465.144 34.8742C464.984 34.8102 464.744 34.7782 464.424 34.7782H457.824C456.736 34.7782 455.856 34.6502 455.184 34.3942C454.528 34.1222 453.984 33.7622 453.552 33.3142C453.12 32.8662 452.784 32.3622 452.544 31.8022C452.304 31.2262 452.184 30.6022 452.184 29.9302C452.184 29.2742 452.304 28.6582 452.544 28.0822C452.8 27.5062 453.144 26.9942 453.576 26.5462C454.008 26.0982 454.552 25.7462 455.208 25.4902C455.864 25.2182 456.736 25.0822 457.824 25.0822H469.728V29.3782Z" fill="white"/>
<g filter="url(#filter0_d_83_308)">
<path d="M296.819 60.3687H314.057V77.6026L296.819 60.3687Z" fill="#0085FF"/>
</g>
<path d="M293.945 60.3687L314.057 80.4749M289.636 60.3687L314.057 84.7834" stroke="#0085FF"/>
<g filter="url(#filter1_d_83_308)">
<path d="M16.6948 76.1665L43.9889 48.8794H16.6948V76.1665Z" fill="#0085FF"/>
</g>
<g filter="url(#filter2_d_83_308)">
<path d="M16.6948 86.2196L54.0447 48.8794" stroke="#0085FF" stroke-width="2"/>
</g>
<g filter="url(#filter3_d_83_308)">
<path d="M19.1948 355.155V92.2819L60.1079 51.3794H323.049V320.715L288.601 355.155H19.1948Z" stroke="#0085FF" stroke-width="5" shape-rendering="crispEdges"/>
</g>
<g filter="url(#filter4_d_83_308)">
<path d="M471.033 13.114H482.728C485.489 13.114 487.728 15.3526 487.728 18.114V31.8909V45.6678C487.728 48.4292 485.489 50.6678 482.728 50.6678H471.033" stroke="#8DC8FF" stroke-width="3"/>
</g>
<rect x="341.052" y="14.3062" width="146.676" height="35.7655" rx="5" fill="#0085FF" fill-opacity="0.1"/>
<g filter="url(#filter5_d_83_308)">
<path d="M357.747 50.6677L346.052 50.6677C343.29 50.6677 341.052 48.4291 341.052 45.6677L341.052 31.8909L341.052 18.114C341.052 15.3526 343.29 13.114 346.052 13.114L357.747 13.114" stroke="#8DC8FF" stroke-width="3"/>
</g>
<g filter="url(#filter6_d_83_308)">
<line y1="-0.5" x2="131.163" y2="-0.5" transform="matrix(-0.834748 0.550632 -0.550829 -0.834618 343.005 46.1477)" stroke="#8DC8FF"/>
</g>
<g filter="url(#filter7_d_83_308)">
<path d="M233.693 118.767C235.717 121.834 234.871 125.961 231.803 127.984C228.735 130.008 224.608 129.162 222.583 126.095C220.559 123.028 221.405 118.901 224.473 116.878C227.541 114.854 231.669 115.7 233.693 118.767Z" stroke="#8DC8FF" shape-rendering="crispEdges"/>
</g>
<defs>
<filter id="filter0_d_83_308" x="286.819" y="50.3687" width="37.2383" height="37.2339" filterUnits="userSpaceOnUse" color-interpolation-filters="sRGB">
<feFlood flood-opacity="0" result="BackgroundImageFix"/>
<feColorMatrix in="SourceAlpha" type="matrix" values="0 0 0 0 0 0 0 0 0 0 0 0 0 0 0 0 0 0 127 0" result="hardAlpha"/>
<feOffset/>
<feGaussianBlur stdDeviation="5"/>
<feComposite in2="hardAlpha" operator="out"/>
<feColorMatrix type="matrix" values="0 0 0 0 0.495833 0 0 0 0 0.54625 0 0 0 0 1 0 0 0 1 0"/>
<feBlend mode="normal" in2="BackgroundImageFix" result="effect1_dropShadow_83_308"/>
<feBlend mode="normal" in="SourceGraphic" in2="effect1_dropShadow_83_308" result="shape"/>
</filter>
<filter id="filter1_d_83_308" x="6.69482" y="38.8794" width="47.2939" height="47.2871" filterUnits="userSpaceOnUse" color-interpolation-filters="sRGB">
<feFlood flood-opacity="0" result="BackgroundImageFix"/>
<feColorMatrix in="SourceAlpha" type="matrix" values="0 0 0 0 0 0 0 0 0 0 0 0 0 0 0 0 0 0 127 0" result="hardAlpha"/>
<feOffset/>
<feGaussianBlur stdDeviation="5"/>
<feComposite in2="hardAlpha" operator="out"/>
<feColorMatrix type="matrix" values="0 0 0 0 0.495833 0 0 0 0 0.54625 0 0 0 0 1 0 0 0 1 0"/>
<feBlend mode="normal" in2="BackgroundImageFix" result="effect1_dropShadow_83_308"/>
<feBlend mode="normal" in="SourceGraphic" in2="effect1_dropShadow_83_308" result="shape"/>
</filter>
<filter id="filter2_d_83_308" x="5.98779" y="38.1721" width="58.7637" height="58.7546" filterUnits="userSpaceOnUse" color-interpolation-filters="sRGB">
<feFlood flood-opacity="0" result="BackgroundImageFix"/>
<feColorMatrix in="SourceAlpha" type="matrix" values="0 0 0 0 0 0 0 0 0 0 0 0 0 0 0 0 0 0 127 0" result="hardAlpha"/>
<feOffset/>
<feGaussianBlur stdDeviation="5"/>
<feComposite in2="hardAlpha" operator="out"/>
<feColorMatrix type="matrix" values="0 0 0 0 0.495833 0 0 0 0 0.54625 0 0 0 0 1 0 0 0 1 0"/>
<feBlend mode="normal" in2="BackgroundImageFix" result="effect1_dropShadow_83_308"/>
<feBlend mode="normal" in="SourceGraphic" in2="effect1_dropShadow_83_308" result="shape"/>
</filter>
<filter id="filter3_d_83_308" x="6.69482" y="38.8794" width="328.854" height="328.775" filterUnits="userSpaceOnUse" color-interpolation-filters="sRGB">
<feFlood flood-opacity="0" result="BackgroundImageFix"/>
<feColorMatrix in="SourceAlpha" type="matrix" values="0 0 0 0 0 0 0 0 0 0 0 0 0 0 0 0 0 0 127 0" result="hardAlpha"/>
<feOffset/>
<feGaussianBlur stdDeviation="5"/>
<feComposite in2="hardAlpha" operator="out"/>
<feColorMatrix type="matrix" values="0 0 0 0 0.495833 0 0 0 0 0.54625 0 0 0 0 1 0 0 0 1 0"/>
<feBlend mode="normal" in2="BackgroundImageFix" result="effect1_dropShadow_83_308"/>
<feBlend mode="normal" in="SourceGraphic" in2="effect1_dropShadow_83_308" result="shape"/>
</filter>
<filter id="filter4_d_83_308" x="461.033" y="1.61401" width="38.1948" height="60.5537" filterUnits="userSpaceOnUse" color-interpolation-filters="sRGB">
<feFlood flood-opacity="0" result="BackgroundImageFix"/>
<feColorMatrix in="SourceAlpha" type="matrix" values="0 0 0 0 0 0 0 0 0 0 0 0 0 0 0 0 0 0 127 0" result="hardAlpha"/>
<feOffset/>
<feGaussianBlur stdDeviation="5"/>
<feComposite in2="hardAlpha" operator="out"/>
<feColorMatrix type="matrix" values="0 0 0 0 0.495833 0 0 0 0 0.54625 0 0 0 0 1 0 0 0 1 0"/>
<feBlend mode="normal" in2="BackgroundImageFix" result="effect1_dropShadow_83_308"/>
<feBlend mode="normal" in="SourceGraphic" in2="effect1_dropShadow_83_308" result="shape"/>
</filter>
<filter id="filter5_d_83_308" x="329.552" y="1.61401" width="38.1948" height="60.5537" filterUnits="userSpaceOnUse" color-interpolation-filters="sRGB">
<feFlood flood-opacity="0" result="BackgroundImageFix"/>
<feColorMatrix in="SourceAlpha" type="matrix" values="0 0 0 0 0 0 0 0 0 0 0 0 0 0 0 0 0 0 127 0" result="hardAlpha"/>
<feOffset/>
<feGaussianBlur stdDeviation="5"/>
<feComposite in2="hardAlpha" operator="out"/>
<feColorMatrix type="matrix" values="0 0 0 0 0.495833 0 0 0 0 0.54625 0 0 0 0 1 0 0 0 1 0"/>
<feBlend mode="normal" in2="BackgroundImageFix" result="effect1_dropShadow_83_308"/>
<feBlend mode="normal" in="SourceGraphic" in2="effect1_dropShadow_83_308" result="shape"/>
</filter>
<filter id="filter6_d_83_308" x="223.517" y="36.1477" width="130.039" height="93.0574" filterUnits="userSpaceOnUse" color-interpolation-filters="sRGB">
<feFlood flood-opacity="0" result="BackgroundImageFix"/>
<feColorMatrix in="SourceAlpha" type="matrix" values="0 0 0 0 0 0 0 0 0 0 0 0 0 0 0 0 0 0 127 0" result="hardAlpha"/>
<feOffset/>
<feGaussianBlur stdDeviation="5"/>
<feComposite in2="hardAlpha" operator="out"/>
<feColorMatrix type="matrix" values="0 0 0 0 0.495833 0 0 0 0 0.54625 0 0 0 0 1 0 0 0 1 0"/>
<feBlend mode="normal" in2="BackgroundImageFix" result="effect1_dropShadow_83_308"/>
<feBlend mode="normal" in="SourceGraphic" in2="effect1_dropShadow_83_308" result="shape"/>
</filter>
<filter id="filter7_d_83_308" x="210.982" y="105.277" width="34.3115" height="34.3079" filterUnits="userSpaceOnUse" color-interpolation-filters="sRGB">
<feFlood flood-opacity="0" result="BackgroundImageFix"/>
<feColorMatrix in="SourceAlpha" type="matrix" values="0 0 0 0 0 0 0 0 0 0 0 0 0 0 0 0 0 0 127 0" result="hardAlpha"/>
<feOffset/>
<feGaussianBlur stdDeviation="5"/>
<feComposite in2="hardAlpha" operator="out"/>
<feColorMatrix type="matrix" values="0 0 0 0 0.495833 0 0 0 0 0.54625 0 0 0 0 1 0 0 0 1 0"/>
<feBlend mode="normal" in2="BackgroundImageFix" result="effect1_dropShadow_83_308"/>
<feBlend mode="normal" in="SourceGraphic" in2="effect1_dropShadow_83_308" result="shape"/>
</filter>
</defs>
</svg>
