<svg width="398" height="660" viewBox="0 0 398 660" fill="none" xmlns="http://www.w3.org/2000/svg">
<g filter="url(#filter0_d_444_196)">
<path fill-rule="evenodd" clip-rule="evenodd" d="M187.01 10C183.186 10 179.952 12.5256 178.884 15.9999H67.0104H65.8575L65.109 16.8769L11.609 79.5526L11.0104 80.2538V81.1757V222.207V223.277L11.7842 224.016L33.0104 244.277V338.5H23.474H22.4385L21.7062 339.232L13.2062 347.732L12.474 348.464L12.474 349.5L12.474 379V413V414.035L13.2062 414.768L19.9385 421.5L13.2062 428.232L12.474 428.964V430V493.5V494.535L13.2062 495.268L19.9385 502L13.2062 508.732L12.474 509.464V510.5V574V575.036L13.2062 575.768L21.7062 584.268L22.4385 585H23.474H33.0104V624.5V627H35.5104H63.0104H151.893L173.29 649.293H302.658L324.054 627H368.51H369.546L370.278 626.268L386.778 609.768L387.51 609.036V608V18.4999V15.9999H385.01H346.137C345.069 12.5256 341.835 10 338.01 10H187.01ZM68.1634 20.9999H178.884C179.952 24.4743 183.186 27 187.01 27H338.01C341.835 27 345.069 24.4743 346.137 20.9999H382.51V606.964L367.475 622H63.0104H38.0104V582.5V502V421.5V419H35.5104H24.5095L17.474 411.964V379L17.474 350.535L24.5095 343.5H35.5104H38.0104V341V243.207V242.137L37.2366 241.399L16.0104 221.137V82.0976L68.1634 20.9999ZM13.3275 346.354L20.3275 339.354L19.6204 338.646L12.6204 345.646L13.3275 346.354ZM12.4739 338.5H12.9739H14.9739H16.9739H18.181L17.3275 339.354L15.3275 341.354L13.3275 343.354L12.4739 344.207V343V341V339V338.5ZM11.0104 16.5H37.0104L11.0104 46.5V16.5ZM59.0209 18.8109L13.0209 71.811L10 69.1891L56 16.189L59.0209 18.8109ZM48.5469 18.7803L13.5469 60.7803L10.474 58.2195L45.474 16.2196L48.5469 18.7803ZM24.5095 424L17.474 431.035V492.464L24.5095 499.5H33.0104V424H24.5095ZM33.0104 504.5H24.5095L17.474 511.535V572.964L24.5095 580H33.0104V504.5ZM18.9739 233V262.698H17.9739V233H18.9739ZM21.8024 265.698V236H20.8024V265.698H21.8024ZM24.6308 239V268.698H23.6308V239H24.6308ZM27.4592 271.698V242H26.4592V271.698H27.4592ZM30.2877 274.698V245H29.2877V274.698H30.2877Z" fill="#0085FF"/>
</g>
<defs>
<filter id="filter0_d_444_196" x="0" y="0" width="397.511" height="659.293" filterUnits="userSpaceOnUse" color-interpolation-filters="sRGB">
<feFlood flood-opacity="0" result="BackgroundImageFix"/>
<feColorMatrix in="SourceAlpha" type="matrix" values="0 0 0 0 0 0 0 0 0 0 0 0 0 0 0 0 0 0 127 0" result="hardAlpha"/>
<feOffset/>
<feGaussianBlur stdDeviation="5"/>
<feComposite in2="hardAlpha" operator="out"/>
<feColorMatrix type="matrix" values="0 0 0 0 0.495833 0 0 0 0 0.54625 0 0 0 0 1 0 0 0 1 0"/>
<feBlend mode="normal" in2="BackgroundImageFix" result="effect1_dropShadow_444_196"/>
<feBlend mode="normal" in="SourceGraphic" in2="effect1_dropShadow_444_196" result="shape"/>
</filter>
</defs>
</svg>
